<svg width="40.000000" height="40.000000" viewBox="0 0 40 40" fill="none" xmlns="http://www.w3.org/2000/svg" xmlns:xlink="http://www.w3.org/1999/xlink">
	<desc>
			Created with Pixso.
	</desc>
	<defs>
		<clipPath id="clip27_588">
			<rect id="armchair-chair-furniture-sofa-svgrepo-com 1" rx="-0.500000" width="39.000000" height="39.000000" transform="translate(0.500000 0.500000)" fill="white" fill-opacity="0"/>
		</clipPath>
	</defs>
	<rect id="armchair-chair-furniture-sofa-svgrepo-com 1" rx="-0.500000" width="39.000000" height="39.000000" transform="translate(0.500000 0.500000)" fill="#FFFFFF" fill-opacity="0"/>
	<g clip-path="url(#clip27_588)">
		<path id="Vector" d="M33.75 18.75C33.32 18.75 32.9 18.81 32.5 18.92L32.5 9.89C32.5 7.6 31.58 5.4 29.96 3.78C28.34 2.16 26.14 1.25 23.85 1.25L16.15 1.25C13.85 1.25 11.65 2.16 10.03 3.78C8.41 5.4 7.5 7.6 7.5 9.89L7.5 18.92C7.09 18.81 6.67 18.75 6.25 18.75C5.15 18.75 4.09 19.12 3.22 19.79C2.35 20.46 1.73 21.39 1.45 22.45C1.16 23.51 1.23 24.63 1.65 25.64C2.06 26.65 2.8 27.5 3.75 28.06L3.75 37.5C3.75 37.83 3.88 38.14 4.11 38.38C4.35 38.61 4.66 38.75 5 38.75L35 38.75C35.33 38.75 35.64 38.61 35.88 38.38C36.11 38.14 36.25 37.83 36.25 37.5L36.25 28.06C37.19 27.5 37.93 26.65 38.34 25.64C38.76 24.63 38.83 23.51 38.54 22.45C38.26 21.39 37.64 20.46 36.77 19.79C35.9 19.12 34.84 18.75 33.75 18.75ZM10 9.89C10 8.27 10.65 6.7 11.8 5.55C12.95 4.4 14.51 3.75 16.15 3.75L23.85 3.75C25.48 3.75 27.04 4.4 28.19 5.55C29.34 6.7 29.99 8.27 30 9.89L30 20.43C29.93 20.51 29.9 20.58 29.85 20.64C29.76 20.74 29.68 20.85 29.62 20.96C29.5 21.12 29.39 21.3 29.31 21.48C29.25 21.59 29.19 21.7 29.15 21.82C29.06 22.02 28.99 22.23 28.93 22.45C28.93 22.55 28.93 22.64 28.85 22.76C28.76 22.87 28.85 23.07 28.85 23.23C28.06 22.75 27.16 22.5 26.25 22.5L13.75 22.5C12.86 22.52 12 22.77 11.25 23.23C11.25 23.07 11.25 22.91 11.25 22.76C11.25 22.61 11.08 22.5 11.06 22.5C11 22.29 10.93 22.08 10.85 21.88C10.85 21.76 10.73 21.64 10.68 21.53C10.63 21.42 10.5 21.2 10.4 21.03L10.14 20.7L10 20.43L10 9.89ZM28.75 27.5L11.25 27.5C11.25 26.83 11.51 26.2 11.98 25.73C12.45 25.26 13.08 25 13.75 25L26.25 25C26.91 25 27.54 25.26 28.01 25.73C28.48 26.2 28.75 26.83 28.75 27.5ZM5.42 26.1C4.87 25.9 4.41 25.51 4.11 25C3.82 24.5 3.71 23.9 3.81 23.33C3.91 22.75 4.2 22.22 4.65 21.84C5.09 21.46 5.66 21.25 6.25 21.25C6.86 21.25 7.46 21.48 7.92 21.89C8.18 22.13 8.39 22.41 8.53 22.73C8.67 23.05 8.74 23.4 8.75 23.75L8.75 36.25L6.25 36.25L6.25 27.27C6.24 27.01 6.17 26.76 6.02 26.55C5.87 26.34 5.66 26.18 5.42 26.1ZM11.25 30L28.75 30L28.75 36.25L11.25 36.25L11.25 30ZM34.57 26.1C34.33 26.18 34.12 26.34 33.97 26.55C33.82 26.76 33.75 27.01 33.75 27.27L33.75 36.25L31.25 36.25L31.25 23.75C31.25 23.08 31.51 22.45 31.98 21.98C32.45 21.51 33.08 21.25 33.75 21.25C34.33 21.25 34.9 21.46 35.34 21.84C35.79 22.22 36.08 22.75 36.18 23.33C36.28 23.9 36.17 24.5 35.88 25C35.58 25.51 35.12 25.9 34.57 26.1Z" fill="#FFA437" fill-opacity="1.000000" fill-rule="nonzero"/>
		<path id="Vector" d="M15 10C15.33 10 15.64 9.86 15.88 9.63C16.11 9.39 16.25 9.08 16.25 8.75C16.24 8.58 16.21 8.42 16.15 8.27C16.08 8.12 15.99 7.98 15.88 7.86C15.76 7.75 15.62 7.66 15.47 7.6C15.24 7.5 14.99 7.47 14.75 7.52C14.51 7.57 14.28 7.68 14.11 7.86C14 7.98 13.91 8.12 13.85 8.27C13.78 8.42 13.75 8.58 13.75 8.75C13.75 9.08 13.88 9.39 14.11 9.63C14.35 9.86 14.66 10 15 10Z" fill="#FFA437" fill-opacity="1.000000" fill-rule="nonzero"/>
		<path id="Vector" d="M24.3 9.78C24.36 9.83 24.44 9.87 24.52 9.89C24.59 9.94 24.67 9.97 24.75 10L25 10C25.24 10 25.49 9.92 25.69 9.79C25.9 9.65 26.06 9.45 26.16 9.22C26.25 9 26.28 8.74 26.23 8.5C26.18 8.26 26.06 8.03 25.88 7.86C25.77 7.74 25.63 7.65 25.48 7.58C25.32 7.52 25.16 7.49 25 7.49C24.83 7.49 24.67 7.52 24.51 7.58C24.36 7.65 24.22 7.74 24.11 7.86C24 7.98 23.91 8.12 23.85 8.27C23.78 8.42 23.75 8.58 23.75 8.75C23.75 9.08 23.88 9.39 24.11 9.63L24.3 9.78Z" fill="#FFA437" fill-opacity="1.000000" fill-rule="nonzero"/>
		<path id="Vector" d="M20 15C20.24 15 20.49 14.92 20.69 14.79C20.9 14.65 21.06 14.45 21.16 14.22C21.25 14 21.28 13.74 21.23 13.5C21.18 13.26 21.06 13.03 20.88 12.86C20.65 12.62 20.33 12.49 20 12.49C19.66 12.49 19.34 12.62 19.11 12.86C18.87 13.09 18.74 13.41 18.74 13.75C18.74 14.08 18.87 14.4 19.11 14.63C19.35 14.86 19.66 14.99 20 15Z" fill="#FFA437" fill-opacity="1.000000" fill-rule="nonzero"/>
		<path id="Vector" d="M15 20C15.28 19.99 15.56 19.89 15.79 19.71C16.01 19.52 16.16 19.27 16.21 18.98C16.27 18.7 16.22 18.4 16.09 18.15C15.95 17.9 15.73 17.7 15.46 17.59C15.19 17.48 14.9 17.47 14.62 17.55C14.34 17.64 14.1 17.81 13.95 18.06C13.79 18.3 13.71 18.59 13.74 18.87C13.77 19.16 13.9 19.43 14.11 19.63C14.35 19.86 14.66 19.99 15 20Z" fill="#FFA437" fill-opacity="1.000000" fill-rule="nonzero"/>
		<path id="Vector" d="M25 20C25.28 19.99 25.56 19.89 25.79 19.71C26.01 19.52 26.16 19.27 26.22 18.98C26.27 18.7 26.22 18.4 26.09 18.15C25.95 17.9 25.73 17.7 25.46 17.59C25.19 17.48 24.9 17.47 24.62 17.55C24.34 17.64 24.1 17.81 23.95 18.06C23.79 18.3 23.71 18.59 23.74 18.87C23.77 19.16 23.9 19.43 24.11 19.63C24.35 19.86 24.66 19.99 25 20Z" fill="#FFA437" fill-opacity="1.000000" fill-rule="nonzero"/>
	</g>
</svg>
