<svg width="24.000000" height="24.000000" viewBox="0 0 24 24" fill="none" xmlns="http://www.w3.org/2000/svg" xmlns:xlink="http://www.w3.org/1999/xlink">
	<desc>
			Created with Pixso.
	</desc>
	<defs>
		<clipPath id="clip21_138">
			<rect rx="-0.300000" width="23.400000" height="23.400000" transform="translate(0.300000 0.300000)" fill="white" fill-opacity="0"/>
		</clipPath>
	</defs>
	<g clip-path="url(#clip21_138)">
		<path d="M20 7L20 17.78C20 18.91 20 19.48 19.77 19.92C19.58 20.28 19.28 20.58 18.92 20.77C18.48 21 17.91 21 16.78 21L7.21 21C6.08 21 5.51 21 5.07 20.77C4.71 20.58 4.41 20.28 4.22 19.92C4 19.48 4 18.91 4 17.78L4 7L20 7Z" stroke="#FFFFFF" stroke-opacity="1.000000" stroke-width="1.200001" stroke-linejoin="round"/>
		<path d="M16.47 3C16.79 3 16.94 3 17.09 3.04C17.21 3.08 17.33 3.14 17.42 3.22C17.54 3.31 17.63 3.45 17.81 3.71L20 7L4 7L6.18 3.71C6.36 3.45 6.45 3.31 6.57 3.22C6.67 3.14 6.78 3.08 6.9 3.04C7.05 3 7.2 3 7.52 3L16.47 3Z" stroke="#FFFFFF" stroke-opacity="1.000000" stroke-width="1.200001" stroke-linejoin="round"/>
		<path d="M8 10C9.44 13.61 14.55 13.61 16 10" stroke="#FFFFFF" stroke-opacity="1.000000" stroke-width="1.200001" stroke-linejoin="round" stroke-linecap="round"/>
	</g>
</svg>
