<svg width="40.000000" height="40.000000" viewBox="0 0 40 40" fill="none" xmlns="http://www.w3.org/2000/svg" xmlns:xlink="http://www.w3.org/1999/xlink">
	<desc>
			Created with Pixso.
	</desc>
	<defs/>
	<rect rx="-0.833333" width="38.333321" height="38.333321" transform="translate(0.833333 0.833333)" fill="#FFFFFF" fill-opacity="0"/>
	<path d="M15.83 16.66C15.37 16.66 15 16.29 15 15.83C15 15.37 15.37 15 15.83 15C16.29 15 16.66 15.37 16.66 15.83C16.66 16.29 16.29 16.66 15.83 16.66Z" stroke="#3378FF" stroke-opacity="1.000000" stroke-width="2.000000" stroke-linejoin="round"/>
	<path d="M24.16 25C23.7 25 23.33 24.62 23.33 24.16C23.33 23.7 23.7 23.33 24.16 23.33C24.62 23.33 24.99 23.7 24.99 24.16C24.99 24.62 24.62 25 24.16 25Z" stroke="#3378FF" stroke-opacity="1.000000" stroke-width="2.000000" stroke-linejoin="round"/>
	<path d="M18.06 7.31C18.23 7.4 18.32 7.45 18.4 7.48C19.37 7.93 20.51 7.88 21.44 7.35C21.52 7.31 21.6 7.26 21.76 7.15C22.11 6.93 22.28 6.82 22.42 6.75C24.19 5.83 26.37 6.67 27.07 8.53C27.13 8.68 27.18 8.88 27.29 9.28C27.34 9.46 27.36 9.55 27.39 9.64C27.73 10.66 28.53 11.46 29.56 11.78C29.65 11.8 29.74 11.83 29.92 11.87L30.17 11.94C31.04 12.16 31.47 12.27 31.79 12.42C33.22 13.14 33.95 14.77 33.51 16.31C33.42 16.65 33.21 17.05 32.79 17.84L32.67 18.07C32.59 18.23 32.54 18.32 32.5 18.4C32.05 19.38 32.1 20.51 32.64 21.44C32.68 21.52 32.73 21.6 32.84 21.76C33.06 22.11 33.17 22.28 33.24 22.42C34.16 24.19 33.32 26.37 31.45 27.07C31.31 27.13 31.11 27.18 30.71 27.29C30.53 27.34 30.44 27.36 30.35 27.39C29.33 27.73 28.53 28.54 28.21 29.56C28.18 29.65 28.16 29.74 28.11 29.92L28.05 30.17C27.83 31.04 27.72 31.47 27.56 31.79C26.85 33.22 25.22 33.95 23.68 33.52C23.34 33.42 22.94 33.21 22.15 32.8L21.92 32.68C21.75 32.59 21.67 32.54 21.59 32.51C20.61 32.06 19.48 32.11 18.54 32.64C18.47 32.68 18.39 32.73 18.23 32.84C17.88 33.06 17.71 33.17 17.57 33.24C15.79 34.16 13.62 33.32 12.92 31.46C12.86 31.31 12.81 31.11 12.7 30.71C12.65 30.53 12.63 30.44 12.6 30.35C12.26 29.33 11.45 28.53 10.43 28.21C10.34 28.19 10.25 28.16 10.06 28.12L9.81 28.05C8.95 27.83 8.52 27.72 8.2 27.56C6.77 26.85 6.04 25.22 6.47 23.68C6.57 23.34 6.78 22.94 7.19 22.15L7.31 21.92C7.4 21.76 7.44 21.67 7.48 21.59C7.93 20.61 7.88 19.48 7.35 18.55C7.31 18.47 7.25 18.39 7.15 18.23C6.93 17.88 6.82 17.71 6.74 17.57C5.83 15.8 6.66 13.62 8.53 12.92C8.68 12.86 8.88 12.81 9.28 12.7C9.46 12.65 9.55 12.63 9.64 12.6C10.66 12.26 11.45 11.45 11.78 10.43C11.8 10.34 11.83 10.25 11.87 10.07L11.94 9.82C12.16 8.95 12.27 8.52 12.42 8.2C13.14 6.77 14.77 6.04 16.31 6.47C16.65 6.57 17.05 6.78 17.84 7.19L18.06 7.31Z" stroke="#3378FF" stroke-opacity="1.000000" stroke-width="2.000000" stroke-linejoin="round"/>
	<path d="M15.83 24.16L24.16 15.83" stroke="#3378FF" stroke-opacity="1.000000" stroke-width="2.000000" stroke-linejoin="round" stroke-linecap="round"/>
</svg>
