<svg width="40.000000" height="40.000000" viewBox="0 0 40 40" fill="none" xmlns="http://www.w3.org/2000/svg" xmlns:xlink="http://www.w3.org/1999/xlink">
	<desc>
			Created with Pixso.
	</desc>
	<defs/>
	<path d="M19.88 13.97L12.35 6.43C11.04 5.13 8.93 5.13 7.63 6.43L6.46 7.6C5.15 8.91 5.16 11.02 6.46 12.32L13.92 19.75M20.19 26.06L27.67 33.54C28.97 34.84 31.08 34.84 32.38 33.54L33.56 32.36C34.86 31.06 34.86 28.94 33.56 27.64L26.22 20.3M31.78 27.07L29.42 29.42M28.01 23.29L25.65 25.65M16.69 11.98L14.34 14.34M12.92 8.21L10.57 10.57M33.47 7.93C34.77 9.24 34.77 11.35 33.47 12.65L14.75 31.37C14.38 31.74 13.93 32.02 13.44 32.18L6.58 34.47C5.92 34.68 5.3 34.07 5.52 33.41L7.81 26.55C7.97 26.06 8.25 25.61 8.62 25.25L27.34 6.52C28.64 5.22 30.75 5.22 32.06 6.52L33.47 7.93ZM25.83 9.16L30.83 14.16" stroke="#FF434E" stroke-opacity="1.000000" stroke-width="2.000000" stroke-linejoin="round" stroke-linecap="round"/>
</svg>
