<svg width="10.645935" height="10.185059" viewBox="0 0 10.6459 10.1851" fill="none" xmlns="http://www.w3.org/2000/svg" xmlns:xlink="http://www.w3.org/1999/xlink">
	<desc>
			Created with Pixso.
	</desc>
	<defs/>
	<path id="Star 2" d="M4.79 0.29L3.43 2.55C3.34 2.7 3.2 2.8 3.04 2.84L0.47 3.43C0.02 3.54 -0.16 4.08 0.15 4.43L1.88 6.43C1.99 6.55 2.04 6.72 2.02 6.88L1.8 9.51C1.76 9.97 2.22 10.31 2.65 10.13L5.08 9.1C5.23 9.04 5.4 9.04 5.56 9.1L7.99 10.13C8.41 10.31 8.88 9.97 8.84 9.51L8.61 6.88C8.6 6.72 8.65 6.55 8.76 6.43L10.49 4.43C10.79 4.08 10.62 3.54 10.16 3.43L7.59 2.84C7.43 2.8 7.29 2.7 7.21 2.55L5.84 0.29C5.61 -0.1 5.03 -0.1 4.79 0.29Z" fill="#FFA437" fill-opacity="1.000000" fill-rule="evenodd"/>
</svg>
